<svg width="144" height="48" viewBox="0 0 144 48" fill="none" xmlns="http://www.w3.org/2000/svg">
<g clip-path="url(#clip0_3250_8599)">
<path d="M7.57035 25.4529C6.18559 25.4529 4.9666 25.1499 3.91328 24.5438C2.86008 23.9183 2.04091 23.0581 1.4558 21.9633C0.870683 20.8492 0.578125 19.5687 0.578125 18.1219C0.578125 16.3821 1.00722 14.8572 1.86538 13.5477C2.74305 12.2379 3.98152 11.2311 5.58092 10.5273C7.19973 9.82366 9.09161 9.47174 11.2566 9.47174C12.2513 9.47174 13.0608 9.54009 13.6849 9.67702V9.06124C13.6849 7.57547 13.4118 6.47092 12.8657 5.74763C12.3196 5.00478 11.4907 4.63334 10.379 4.63334C8.58463 4.63334 7.43392 5.58147 6.92683 7.4777C6.77081 8.02509 6.44901 8.25967 5.96141 8.18147L1.98255 7.4777C1.68998 7.41905 1.48518 7.29198 1.36816 7.09651C1.27064 6.90101 1.26089 6.63712 1.33892 6.3048C1.84601 4.31079 2.91873 2.76641 4.55702 1.67164C6.21486 0.557345 8.29193 0.000215746 10.7884 0.000215746C13.753 0.000215746 16.0057 0.801714 17.5465 2.40475C19.1069 4.00774 19.8869 6.34392 19.8869 9.41327V24.1628C19.8869 24.3778 19.809 24.5634 19.653 24.7198C19.5164 24.8567 19.3408 24.925 19.1263 24.925H15.3232C14.8551 24.925 14.5626 24.6709 14.4456 24.1628L13.8605 21.4064H13.6264C13.0998 22.6966 12.3099 23.6935 11.2567 24.3973C10.223 25.1011 8.99403 25.4529 7.57035 25.4529ZM6.95596 17.4181C6.95596 18.4543 7.21928 19.2851 7.74588 19.9106C8.292 20.5167 9.02338 20.8197 9.94005 20.8197C11.1493 20.8197 12.0757 20.282 12.7193 19.2068C13.363 18.1122 13.6848 16.5482 13.6848 14.5151V12.9608C13.1387 12.8631 12.6218 12.8142 12.1342 12.8142C10.5349 12.8142 9.26718 13.2345 8.33114 14.0752C7.41447 14.8962 6.95596 16.0107 6.95596 17.4181ZM23.5146 1.29034C23.5146 1.07531 23.583 0.899375 23.7194 0.76252C23.8755 0.606122 24.0608 0.527932 24.2753 0.527932H28.1372C28.3517 0.527932 28.5274 0.596345 28.6638 0.733189C28.82 0.870037 28.9173 1.05574 28.9563 1.29032L29.5416 4.16399H29.7755C30.3022 2.81514 31.053 1.7888 32.0283 1.08504C33.0229 0.36171 34.1931 8.27028e-05 35.5388 8.27028e-05C36.982 8.27028e-05 38.2208 0.381271 39.2543 1.14368C40.3076 1.9061 41.117 2.99105 41.6827 4.39854H41.9166C42.7747 2.91284 43.7405 1.80833 44.8131 1.085C45.8858 0.361674 47.0851 4.67451e-05 48.4114 4.67451e-05C49.8546 4.67451e-05 51.103 0.391015 52.156 1.17295C53.229 1.95493 54.048 3.06922 54.6134 4.5158C55.1791 5.96245 55.4622 7.67296 55.4622 9.64733V24.1624C55.4622 24.3774 55.384 24.563 55.2279 24.7194C55.0912 24.8563 54.9158 24.9246 54.7013 24.9246H50.0203C49.8058 24.9246 49.6207 24.8563 49.4646 24.7194C49.328 24.563 49.2598 24.3774 49.2598 24.1624V10.1162C49.2598 8.68913 48.9868 7.59447 48.4408 6.83205C47.8944 6.06968 47.1048 5.68845 46.0709 5.68845C44.9398 5.68845 44.072 6.13807 43.4671 7.03734C42.882 7.93657 42.5896 9.23655 42.5896 10.9373V24.1622C42.5896 24.3772 42.5114 24.5628 42.3554 24.7192C42.219 24.8561 42.0432 24.9244 41.8287 24.9244H37.1478C36.9336 24.9244 36.7481 24.8561 36.5921 24.7192C36.4554 24.5628 36.3873 24.3772 36.3873 24.1622V10.116C36.3873 8.68895 36.1143 7.59429 35.5682 6.83187C35.022 6.0695 34.2322 5.68827 33.1986 5.68827C32.0672 5.68827 31.1993 6.13789 30.5946 7.03716C30.0096 7.93639 29.717 9.23637 29.717 10.9371V24.162C29.717 24.377 29.6391 24.5626 29.4831 24.719C29.3465 24.8559 29.1708 24.9243 28.9563 24.9243H24.2754C24.0609 24.9243 23.8756 24.8559 23.7195 24.719C23.5831 24.5626 23.5147 24.377 23.5147 24.162L23.5146 1.29034ZM58.5043 18.1218C58.5043 16.382 58.9337 14.8571 59.7918 13.5476C60.6693 12.2378 61.9077 11.231 63.5073 10.5272C65.126 9.82355 67.018 9.47163 69.1827 9.47163C70.1775 9.47163 70.9868 9.53999 71.6111 9.67691V9.06114C71.6111 7.57536 71.3377 6.47081 70.7917 5.74752C70.2457 5.00467 69.417 4.63323 68.3052 4.63323C66.5108 4.63323 65.3599 5.58136 64.853 7.47759C64.6969 8.02498 64.3751 8.25957 63.8876 8.18136L59.9088 7.47759C59.616 7.41895 59.4112 7.29187 59.2942 7.09641C59.197 6.9009 59.187 6.63701 59.2652 6.30469C59.7721 4.31069 60.8447 2.7663 62.4835 1.67153C64.1409 0.557237 66.218 0.000107873 68.7146 0.000107873C71.6792 0.000107873 73.9318 0.801606 75.4726 2.40464C77.0328 4.00764 77.8131 6.34381 77.8131 9.41316V24.1627C77.8131 24.3777 77.7352 24.5633 77.5792 24.7197C77.4425 24.8566 77.2671 24.9249 77.0525 24.9249H73.2495C72.7813 24.9249 72.4886 24.6708 72.3716 24.1627L71.7865 21.4063H71.5526C71.026 22.6965 70.236 23.6934 69.1827 24.3972C68.1492 25.101 66.9205 25.4528 65.4966 25.4528C64.0727 25.4528 62.8928 25.1498 61.8395 24.5438C60.7863 23.9183 59.9672 23.0581 59.3821 21.9632C58.797 20.8491 58.5043 19.5686 58.5043 18.1218ZM64.8824 17.418C64.8824 18.4542 65.1454 19.285 65.672 19.9105C66.218 20.5166 66.9495 20.8196 67.8661 20.8196C69.0754 20.8196 70.0017 20.2819 70.6457 19.2067C71.2889 18.1121 71.6111 16.5481 71.6111 14.515V12.9607C71.0647 12.863 70.5481 12.8141 70.0602 12.8141C68.4613 12.8141 67.1935 13.2344 66.2571 14.075C65.3405 14.8961 64.8824 16.0106 64.8824 17.418ZM80.9729 20.6143C80.9729 20.1843 81.0899 19.8128 81.3238 19.5L91.3292 5.45418H81.9674C81.7528 5.45418 81.5677 5.38575 81.4117 5.24893C81.275 5.09252 81.2068 4.90683 81.2068 4.69177V1.29027C81.2068 1.07523 81.275 0.899303 81.4117 0.762448C81.5677 0.60605 81.7528 0.52786 81.9674 0.52786H97.3558C97.5707 0.52786 97.7461 0.60605 97.8824 0.762448C98.0385 0.899292 98.1163 1.07522 98.1163 1.29027V4.8384C98.1163 5.26846 97.9994 5.6399 97.7655 5.9527L88.696 18.4444C89.2424 18.3468 89.7981 18.298 90.3638 18.298C91.7683 18.298 93.0555 18.4249 94.2257 18.6791C95.4153 18.9137 96.6441 19.3046 97.9119 19.852C98.3603 20.0475 98.5845 20.3798 98.5845 20.8491V24.2212C98.5845 24.534 98.4873 24.749 98.2921 24.8663C98.097 24.964 97.8534 24.9543 97.5606 24.837C96.098 24.2896 94.8008 23.9085 93.6697 23.6933C92.5579 23.4588 91.3389 23.3414 90.0126 23.3414C88.6863 23.3414 87.4189 23.4588 86.1511 23.6933C84.9026 23.928 83.5182 24.3091 81.9968 24.837C81.704 24.9348 81.4605 24.9348 81.2653 24.837C81.0705 24.7196 80.9729 24.5143 80.9729 24.2212V20.6143ZM99.872 12.7263C99.872 10.3414 100.33 8.18121 101.247 6.24597C102.164 4.29109 103.421 2.76627 105.021 1.67142C106.64 0.557129 108.434 0 110.404 0C112.374 0 114.187 0.557129 115.787 1.67142C117.406 2.76616 118.674 4.29098 119.59 6.24597C120.526 8.18132 120.994 10.3416 120.994 12.7263C120.994 15.1113 120.526 17.2814 119.59 19.2361C118.674 21.1714 117.406 22.6962 115.787 23.8106C114.187 24.9052 112.393 25.4527 110.404 25.4527C108.415 25.4527 106.64 24.9052 105.021 23.8106C103.421 22.6963 102.164 21.1715 101.247 19.2361C100.33 17.2812 99.872 15.1114 99.872 12.7263ZM106.308 12.7263C106.308 15.209 106.659 17.125 107.361 18.4738C108.064 19.8031 109.077 20.4678 110.404 20.4678C111.73 20.4678 112.754 19.8031 113.476 18.4738C114.198 17.125 114.558 15.2091 114.558 12.7263C114.558 10.2437 114.198 8.33763 113.476 7.00827C112.754 5.65935 111.73 4.98493 110.404 4.98493C109.077 4.98493 108.064 5.65935 107.361 7.00827C106.659 8.33756 106.308 10.2436 106.308 12.7263ZM124.154 1.29027C124.154 1.07523 124.222 0.899303 124.359 0.762448C124.515 0.60605 124.7 0.52786 124.915 0.52786H128.776C128.991 0.52786 129.167 0.596273 129.303 0.733117C129.459 0.869965 129.557 1.05567 129.596 1.29025L130.181 4.16392H130.415C130.941 2.8346 131.712 1.80829 132.726 1.08496C133.76 0.361638 134.969 1.07873e-05 136.354 1.07873e-05C137.836 1.07873e-05 139.113 0.390979 140.186 1.17292C141.278 1.95489 142.117 3.06918 142.702 4.51576C143.287 5.96242 143.58 7.67293 143.58 9.64729V24.1624C143.58 24.3774 143.502 24.563 143.346 24.7193C143.209 24.8562 143.034 24.9246 142.819 24.9246H138.138C137.924 24.9246 137.738 24.8562 137.582 24.7193C137.446 24.563 137.378 24.3774 137.378 24.1624V10.1162C137.378 8.68909 137.085 7.59443 136.5 6.83202C135.915 6.06964 135.086 5.68842 134.013 5.68842C132.823 5.68842 131.916 6.13803 131.293 7.0373C130.668 7.93653 130.356 9.23651 130.356 10.9373V24.1622C130.356 24.3772 130.278 24.5628 130.122 24.7192C129.986 24.8561 129.81 24.9244 129.596 24.9244H124.915C124.7 24.9244 124.515 24.8561 124.359 24.7192C124.222 24.5628 124.154 24.3772 124.154 24.1622V1.29027Z" fill="#D1D1D1"/>
<path d="M16.8452 28.2961C16.4746 28.5894 16.3966 29.078 16.6112 29.7623C16.8062 30.3683 17.2645 31.1208 17.9862 32.0201C20.8922 35.6173 24.3539 38.608 28.3719 40.993C32.3899 43.3781 36.6905 45.1375 41.2739 46.2713C45.8766 47.4244 50.5769 48.0012 55.3748 48.0012C61.5187 48.0012 67.3698 47.1023 72.9282 45.3036C78.4866 43.5245 83.1288 41.0222 86.854 37.7967C88.1606 36.6436 88.8142 35.7246 88.8142 35.0403C88.8142 34.7862 88.707 34.532 88.4924 34.2779C88.1997 33.9848 87.8485 33.887 87.4392 33.9848C87.0295 34.0824 86.454 34.3268 85.7129 34.7178C82.1437 36.5947 77.7946 38.0898 72.6649 39.2042C67.5553 40.3383 62.2207 40.905 56.6623 40.905C49.7776 40.905 43.1268 39.9669 36.7099 38.0899C30.2933 36.2133 24.6079 33.2809 19.654 29.2932C18.9324 28.7263 18.3472 28.3645 17.8986 28.2081C17.4696 28.0517 17.1183 28.0811 16.8452 28.2961Z" fill="#ADADAD"/>
<path d="M81.8489 29.7661C81.4392 30.1572 81.3319 30.5677 81.5271 30.9979C81.6634 31.3106 81.9267 31.4865 82.317 31.5256C82.707 31.5842 83.2627 31.5451 83.9845 31.4084C85.1547 31.1543 86.3737 30.9782 87.6412 30.8804C88.909 30.8023 90.0111 30.8218 90.9474 30.9391C91.8837 31.0759 92.4685 31.3106 92.7028 31.6429C93.054 32.1708 92.927 33.2849 92.3221 34.9858C91.7374 36.6865 90.9377 38.3384 89.9232 39.9415C89.5332 40.5866 89.2993 41.0947 89.2211 41.4665C89.1433 41.8379 89.2408 42.1504 89.5138 42.4046C89.6893 42.5804 89.8844 42.6685 90.099 42.6685C90.6647 42.6685 91.4837 42.1702 92.5564 41.1731C94.4871 39.492 95.8425 37.4978 96.6231 35.1911C97.0518 33.9986 97.3152 32.7475 97.4127 31.4379C97.5103 30.1282 97.3639 29.1897 96.974 28.6228C96.6034 28.0754 95.784 27.6258 94.5166 27.2741C93.2681 26.9221 92.0104 26.7461 90.7426 26.7461C88.2654 26.7461 85.9153 27.3327 83.6921 28.5056C82.8727 28.9553 82.2586 29.3753 81.8489 29.7661Z" fill="#ADADAD"/>
</g>
<defs>
<clipPath id="clip0_3250_8599">
<rect width="143" height="48" fill="white" transform="translate(0.578125)"/>
</clipPath>
</defs>
</svg>
