<svg width="108" height="48" viewBox="0 0 108 48" fill="none" xmlns="http://www.w3.org/2000/svg">
<g clip-path="url(#clip0_3218_5997)">
<path d="M65.4842 9.59375H56.1962H53.2802V10.7075C53.8562 10.7794 54.3242 10.8153 54.7202 10.9231C55.1882 11.0309 55.5122 11.1746 55.7642 11.3902C56.4842 12.0009 56.4842 13.1866 56.4842 15.2704V29.3902C56.4842 32.2644 56.7362 36.3243 52.6682 36.2524C50.9042 36.2165 49.1402 34.9949 48.5642 32.7315H47.1602C47.7362 36.5399 49.7882 39.1267 54.7202 39.1267C58.8962 39.1267 62.6402 37.1866 62.6402 30.6836V19.7255V15.2704C62.6402 13.1506 62.6402 12.0728 63.3602 11.4261C63.8282 11.0309 64.1882 10.8512 65.4842 10.7075V9.62968V9.59375Z" fill="#D1D1D1"/>
<path d="M79.5243 9.59375H67.3203V10.6357V10.7075C68.5803 10.8153 69.0123 11.0309 69.4443 11.4261C70.0203 11.9291 70.1283 12.7195 70.1283 14.1207C70.1283 14.5518 70.1283 14.983 70.1283 15.5219V32.4081C70.1283 32.9111 70.1283 33.3782 70.1283 33.8093C70.0923 35.1746 70.0203 36.0369 69.4443 36.5039C68.9763 36.8991 68.6163 37.0788 67.3203 37.2225V37.2943V38.3363H79.5243H79.5603H85.7523L87.6963 32.6955H86.2923C84.8883 35.7854 82.6923 36.1446 80.6763 36.1446C79.0203 36.1446 77.9403 36.0369 77.1843 35.5698C76.5723 35.1746 76.3563 34.1327 76.3203 32.3363V15.5938V15.2704C76.3203 13.1506 76.3203 12.0009 77.0403 11.3902C77.5083 10.9949 78.2643 10.8512 79.5603 10.7435L79.5243 9.59375Z" fill="#D1D1D1"/>
<path d="M99.828 9.59375H87.624V10.6357V10.7075C88.884 10.8153 89.316 11.0309 89.748 11.4261C90.324 11.9291 90.432 12.7195 90.432 14.1207C90.432 14.5518 90.432 14.983 90.432 15.5219V32.4081C90.432 32.9111 90.432 33.3782 90.432 33.8093C90.396 35.1746 90.324 36.0369 89.748 36.5039C89.28 36.8991 88.92 37.0788 87.624 37.2225V37.2943V38.3363H99.828H99.864H106.056L108 32.6955H106.596C105.192 35.7854 102.996 36.1446 100.98 36.1446C99.324 36.1446 98.244 36.0369 97.488 35.5698C96.876 35.1746 96.66 34.1327 96.624 32.3363V15.5938V15.2704C96.624 13.1506 96.624 12.0009 97.344 11.3902C97.812 10.9949 98.568 10.8512 99.864 10.7435V9.59375H99.828Z" fill="#D1D1D1"/>
<path d="M17.9276 47.0678C18.5036 46.8163 19.0436 46.4929 19.5836 46.1337C19.6916 46.0618 19.7996 45.9899 19.9076 45.9181C20.5556 45.451 21.1316 44.9121 21.7076 44.2654C22.4276 43.5109 23.0756 42.6486 23.6876 41.7504C24.1556 41.0678 24.5516 40.3133 24.9476 39.5588C26.4236 36.6127 27.3956 33.3792 27.8996 30.1816C28.2236 28.0977 28.3676 26.0139 28.3676 23.966C28.3676 21.9181 28.2236 19.8343 27.8996 17.7504C27.3956 14.5528 26.4596 11.2834 24.9476 8.37318C24.7676 8.04982 24.5876 7.69054 24.4076 7.36719C23.6156 8.80431 22.9676 10.3492 22.4276 11.966C23.3996 14.8402 23.9756 17.8941 24.1916 20.9121C24.2636 21.9181 24.2996 22.9959 24.2996 24.0019C24.2996 25.0079 24.2636 26.0858 24.1916 27.0917C23.9396 30.7923 23.1836 34.4929 21.7436 37.942C21.2036 39.2714 20.5556 40.5648 19.7636 41.7864C19.5836 42.0738 19.4396 42.3612 19.2236 42.6486C18.8276 43.2235 18.4316 43.7624 17.9996 44.3372C17.4956 44.948 16.9556 45.5588 16.3436 46.1337C15.7316 46.7444 15.0836 47.2834 14.3636 47.7863C14.2916 47.8223 14.2556 47.8582 14.1836 47.8941V47.966C15.4436 47.9301 16.7756 47.6067 17.9276 47.0678Z" fill="#D1D1D1"/>
<path d="M25.4167 47.0665C25.9927 46.815 26.5327 46.4917 27.0727 46.1324C27.1807 46.0605 27.2887 45.9887 27.3967 45.9168C29.5927 44.2641 31.2127 42.0366 32.4367 39.6294C33.9127 36.6833 34.8847 33.4498 35.3887 30.2521C35.7127 28.1683 35.8567 26.0845 35.8567 24.0366C35.8567 21.9887 35.7127 19.9048 35.3887 17.821C34.8847 14.6234 33.9487 11.3539 32.4367 8.44377C31.3207 6.21622 29.8087 4.13239 27.8647 2.51562C27.2527 3.16233 26.6767 3.88089 26.1367 4.63539C26.3167 4.88688 26.4967 5.13838 26.6767 5.38988C29.7727 9.98868 31.2847 15.4498 31.6447 20.9468C31.7167 21.9527 31.7527 23.0306 31.7527 24.0366C31.7527 25.0426 31.7167 26.1204 31.6447 27.1264C31.2847 32.6234 29.7727 38.1204 26.6767 42.6833C26.2807 43.2581 25.8847 43.7971 25.4527 44.3719C24.9487 44.9827 24.4087 45.5935 23.7967 46.1683C23.1847 46.7791 22.5367 47.318 21.8167 47.821C21.7447 47.8569 21.7087 47.8929 21.6367 47.9288V48.0007C22.9687 47.9288 24.2647 47.6054 25.4167 47.0665Z" fill="#D1D1D1"/>
<path d="M34.9202 45.8802C37.1162 44.2275 38.7362 42 39.9602 39.5928C41.4362 36.6467 42.4082 33.4132 42.9122 30.2156C43.2362 28.1317 43.3802 26.0479 43.3802 24C43.3802 21.9521 43.2362 19.8683 42.9122 17.7844C42.4082 14.5868 41.4722 11.3174 39.9602 8.40719C38.7362 6 37.0802 3.7006 34.9202 2.11976C33.2642 0.826347 31.2122 0.0359281 29.1962 0V0.0718563C31.1762 1.43713 32.8682 3.34132 34.1642 5.35329C37.2602 9.9521 38.7722 15.4132 39.1322 20.9102C39.2042 21.9162 39.2402 22.994 39.2402 24C39.2402 25.006 39.2042 26.0838 39.1322 27.0898C38.7722 32.5868 37.2602 38.0838 34.1642 42.6467C32.8322 44.6228 31.1402 46.5269 29.1602 47.9281V48C31.2122 47.9281 33.2642 47.1377 34.9202 45.8802Z" fill="#D1D1D1"/>
<path d="M25.4156 0.898204C24.8396 1.1497 24.2996 1.47305 23.7596 1.83234C23.6516 1.90419 23.5436 1.97605 23.4356 2.0479C22.8236 2.51497 22.2116 3.05389 21.6356 3.66467C20.9156 4.41916 20.2676 5.28144 19.6556 6.17964C19.1876 6.86228 18.7916 7.61677 18.3956 8.37126C16.9196 11.3174 15.9476 14.5509 15.4436 17.7485C15.1196 19.8323 14.9756 21.9162 14.9756 23.9641C14.9756 26.012 15.1196 28.0958 15.4436 30.1796C15.9476 33.3772 16.8836 36.6467 18.3956 39.5569C18.5756 39.8802 18.7556 40.2395 18.9356 40.5629C19.7276 39.1257 20.3756 37.5808 20.9156 35.9641C19.9436 33.0898 19.3676 30.0359 19.1516 27.018C19.0796 26.012 19.0436 24.9341 19.0436 23.9281C19.0436 22.9222 19.0796 21.8443 19.1516 20.8383C19.4036 17.1377 20.1596 13.4371 21.5996 9.98802C22.1756 8.69461 22.8236 7.36527 23.6156 6.14371C23.7956 5.85629 23.9396 5.56886 24.1556 5.28144C24.5516 4.70659 24.9476 4.16766 25.3796 3.59281C25.8836 2.98204 26.4236 2.37126 27.0356 1.79641C27.6476 1.18563 28.2956 0.646707 29.0156 0.143713C29.0876 0.107784 29.1236 0.0718563 29.1956 0.0359281V0C27.8996 0.0359281 26.6396 0.359281 25.4156 0.898204Z" fill="#D1D1D1"/>
<path d="M17.9283 0.898204C17.3523 1.1497 16.8123 1.47305 16.2723 1.83234C16.1643 1.90419 16.0563 1.97605 15.9483 2.0479C13.7883 3.7006 12.1683 5.92814 10.9083 8.33533C9.43228 11.2814 8.46028 14.515 7.95628 17.7126C7.63228 19.8323 7.48828 21.8802 7.48828 23.9641C7.48828 26.012 7.63228 28.0958 7.95628 30.1796C8.46028 33.3772 9.39628 36.6467 10.9083 39.5569C12.0243 41.7844 13.5363 43.8683 15.4803 45.485C16.0923 44.8383 16.6683 44.1198 17.2083 43.3653C17.0283 43.1138 16.8483 42.8623 16.6683 42.6108C13.5723 38.012 12.0603 32.5509 11.7003 27.0539C11.6283 26.0479 11.5923 24.9701 11.5923 23.9641C11.5923 22.9581 11.6283 21.8802 11.7003 20.8743C12.0603 15.3772 13.5723 9.88024 16.6683 5.31737C17.0643 4.74251 17.4603 4.20359 17.8923 3.62874C18.3963 3.01796 18.9363 2.40719 19.5483 1.83234C20.1603 1.25748 20.8083 0.718563 21.4923 0.251497C21.5643 0.215569 21.6003 0.179641 21.6723 0.143713V0C20.4123 0.0359281 19.1163 0.359281 17.9283 0.898204Z" fill="#D1D1D1"/>
<path d="M8.46 2.08383C6.264 3.73653 4.644 5.96407 3.42 8.37126C1.944 11.3174 0.972 14.5509 0.468 17.7485C0.144 19.8683 0 21.9162 0 24C0 26.0479 0.144 28.1317 0.468 30.2156C0.972 33.4132 1.908 36.6826 3.42 39.5928C4.644 42 6.3 44.2994 8.46 45.8802C10.116 47.0659 12.132 47.8922 14.184 47.9641V47.8922C12.168 46.5269 10.512 44.6228 9.18 42.6108C6.084 38.012 4.572 32.5509 4.212 27.0539C4.14 26.0479 4.104 24.9701 4.104 23.9641C4.104 22.9581 4.14 21.8802 4.212 20.8743C4.572 15.3772 6.084 9.88024 9.18 5.31737C10.476 3.34132 12.168 1.43713 14.184 0.0718563V0C12.132 0.0359281 10.08 0.826347 8.46 2.08383Z" fill="#D1D1D1"/>
<path d="M23.0039 45.5217C23.6159 44.875 24.1919 44.1564 24.7319 43.4019C24.5519 43.1504 24.3719 42.8989 24.1919 42.6474C24.0119 42.36 23.8319 42.0726 23.6519 41.7852C23.0759 42.6474 22.4279 43.5456 21.6719 44.3001C22.0679 44.7313 22.5719 45.1265 23.0039 45.5217Z" fill="#D1D1D1"/>
<path d="M27.072 46.1328C26.568 46.4921 26.028 46.7795 25.416 47.0669C26.568 47.6059 27.9 47.9292 29.16 47.9652V47.8933C28.44 47.3903 27.72 46.7795 27.072 46.1328Z" fill="#D1D1D1"/>
<path d="M20.9877 47.9277C21.2037 47.8917 21.3837 47.8558 21.5997 47.8558C21.3837 47.7121 21.2037 47.5684 20.9877 47.4247C20.4837 47.0295 20.0157 46.6343 19.5837 46.2031C19.0797 46.5624 18.5397 46.8498 17.9277 47.1373C18.6837 47.4965 19.5477 47.748 20.3757 47.8917C20.5917 47.8558 20.7717 47.8917 20.9877 47.9277ZM21.6717 47.9636V47.8917C21.6357 47.8558 21.5997 47.8558 21.5637 47.8199C21.3477 47.8558 21.1677 47.8917 20.9517 47.8917C21.2037 47.9636 21.4557 47.9636 21.6717 47.9636Z" fill="#D1D1D1"/>
<path d="M20.3764 2.48047C19.7644 3.12718 19.1884 3.84574 18.6484 4.60023C18.8284 4.85173 19.0084 5.10322 19.1884 5.35472C19.3684 5.64215 19.5484 5.92957 19.7284 6.217C20.3044 5.35472 20.9524 4.45652 21.7084 3.70203C21.2764 3.23496 20.8444 2.83975 20.3764 2.48047Z" fill="#D1D1D1"/>
<path d="M16.2716 1.86826C16.7756 1.50898 17.3156 1.22156 17.9276 0.934132C16.7756 0.359281 15.4436 0.0359281 14.1836 0V0.0718563C14.9396 0.57485 15.6236 1.18563 16.2716 1.86826Z" fill="#D1D1D1"/>
<path d="M25.4159 0.898204C24.6599 0.538922 23.7959 0.287425 22.9679 0.143713C22.7519 0.107784 22.5719 0.0718563 22.3559 0.0718563C22.1399 0.0359281 21.9239 0 21.6719 0V0.0718563C21.7079 0.107784 21.7439 0.107784 21.7799 0.143713C21.9959 0.287425 22.1759 0.431138 22.3919 0.57485C22.8959 0.97006 23.3639 1.36527 23.7959 1.79641C24.3359 1.47305 24.8759 1.1497 25.4159 0.898204Z" fill="#D1D1D1"/>
</g>
<defs>
<clipPath id="clip0_3218_5997">
<rect width="108" height="48" fill="white"/>
</clipPath>
</defs>
</svg>
